<svg width="512" height="512" viewBox="0 0 512 512" fill="none" xmlns="http://www.w3.org/2000/svg">
  <defs>
    <linearGradient id="blueGrad" x1="120" y1="70" x2="390" y2="445" gradientUnits="userSpaceOnUse">
      <stop offset="0" stop-color="#79C7FF"/>
      <stop offset="0.45" stop-color="#399BEE"/>
      <stop offset="1" stop-color="#1675D6"/>
    </linearGradient>
    <filter id="softShadow" x="-20%" y="-20%" width="140%" height="150%" color-interpolation-filters="sRGB">
      <feDropShadow dx="0" dy="18" stdDeviation="16" flood-color="#000000" flood-opacity="0.22"/>
      <feDropShadow dx="0" dy="4" stdDeviation="4" flood-color="#ffffff" flood-opacity="0.35"/>
    </filter>
    <filter id="iconShadow" x="-20%" y="-20%" width="140%" height="140%">
      <feDropShadow dx="0" dy="4" stdDeviation="3" flood-color="#000000" flood-opacity="0.15"/>
    </filter>
  </defs>
  <circle cx="256" cy="256" r="206" fill="white" filter="url(#softShadow)"/>
  <circle cx="256" cy="256" r="176" fill="url(#blueGrad)"/>
  <circle cx="256" cy="256" r="172" stroke="white" stroke-opacity="0.25" stroke-width="6"/>
  <g filter="url(#iconShadow)" fill="white">
    <path d="M142 218c0-16.6 13.4-30 30-30h43l83-67c19.6-15.8 49-1.9 49 23.3v223.4c0 25.2-29.4 39.1-49 23.3l-83-67h-43c-16.6 0-30-13.4-30-30v-76z"/>
  </g>
  <g stroke="white" stroke-width="24" stroke-linecap="round" fill="none" filter="url(#iconShadow)">
    <path d="M382 206c18 28 18 72 0 100"/>
    <path d="M420 166c38 55 38 125 0 180"/>
  </g>
</svg>
